<?xml version="1.0" encoding="UTF-8"?> <svg xmlns="http://www.w3.org/2000/svg" viewBox="0 0 104 38"> <g fill="#0f58ba"> <path d="m89.2 6.5c.1.2.3.3.5.2l3.3-2.4c.1-.1.1-.3 0-.3l-5.1-3.3c-.1-.1-.3 0-.3.2z"></path> <path d="m100 .5-16.3 11.6c-.1.1-.1.3.1.3l7.2.3c.1 0 .1.1.2.1l2.5 6.6c.1.2.3.2.4 0l6.2-18.7c0-.2-.2-.3-.3-.2zm-3.9 5.5-2.3 6.9c0 .1-.1.1-.1 0l-.9-2.4s0 0-.1 0l-2.7-.2c-.1 0-.1-.1 0-.1l6-4.2c.1-.1.1 0 .1 0z"></path> <path d="m103.8 12.1-4.7-3.7c-.2-.1-.4-.1-.5.1l-1.2 3.7c-.1.2.1.4.3.4l6.1-.2c.1 0 .2-.2 0-.3z"></path> <path d="m7.4 38c2.3 0 4.2-.6 5.9-1.9v1.5h4.9v-13.1c0-4.7-3.1-7.4-8.5-7.4-2.8 0-5.7.7-8.8 2.1l1.8 3.7c2.5-1.2 4.4-1.7 6.2-1.7 2.9 0 4.4 1.2 4.4 3.7v1.6c-1.6-.6-3.3-.9-5.1-.9-5.2.1-8.2 2.4-8.2 6.2 0 3.7 3 6.2 7.4 6.2zm-2.7-6.3c0-1.7 1.5-2.7 4.1-2.7 1.7 0 3.1.3 4.5.9v3c-1.3 1-2.8 1.5-4.7 1.5-2.4 0-3.9-1-3.9-2.7zm16.5 5.9h5v-28.1l-5 .9zm17.4.4c1.2 0 2.9-.2 4-.6v-4.1c-1 .4-1.8.5-2.8.5-2.1 0-2.8-.7-2.8-2.7v-9.5h5.9v-4.1h-5.9v-6.3l-5 1.1v5.2h-4.2v4.1h4.2v10.6c0 3.8 2.3 5.8 6.6 5.8zm12.1 0c2.3 0 4.2-.6 5.9-1.9v1.5h4.9v-13.1c0-4.7-3.1-7.4-8.5-7.4-2.8 0-5.7.7-8.8 2.1l1.8 3.7c2.5-1.2 4.4-1.7 6.2-1.7 2.9 0 4.4 1.2 4.4 3.7v1.6c-1.6-.6-3.3-.9-5.1-.9-5.2 0-8.2 2.3-8.2 6.1.1 3.8 3.1 6.3 7.4 6.3zm-2.6-6.3c0-1.7 1.6-2.7 4.1-2.7 1.7 0 3.1.3 4.5.9v3c-1.3 1-2.8 1.5-4.7 1.5-2.4 0-3.9-1-3.9-2.7zm19-16.9c1.6 0 2.8-1.3 2.8-2.8 0-1.6-1.3-2.8-2.8-2.8-1.6 0-2.9 1.2-2.9 2.8 0 1.5 1.3 2.8 2.9 2.8zm-2.5 22.8h5v-20.2h-5zm8 0h5v-13.2c1.1-2 2.8-3.2 5-3.2.9 0 1.8.2 2.6.5v-4.4c-.6-.2-1.1-.3-2.2-.3-2.3 0-4.1 1-5.4 2.8v-2.3h-5z"></path> </g> </svg> 